<svg width="24" height="27" viewBox="0 0 24 27" fill="none" xmlns="http://www.w3.org/2000/svg">
<path d="M11.8154 0.5C11.8782 0.499493 11.9403 0.514582 11.9951 0.543945L12.0469 0.578125L23.3555 9.33496L23.3564 9.33594C23.4011 9.37044 23.437 9.41515 23.4619 9.46582C23.4868 9.51653 23.5 9.57241 23.5 9.62891V25.4648L23.4932 25.5381C23.4788 25.6094 23.4428 25.6753 23.3906 25.7275C23.3209 25.7972 23.2265 25.8369 23.1279 25.8369H16.6201C16.5215 25.8369 16.4262 25.7973 16.3564 25.7275C16.2869 25.6578 16.248 25.5633 16.248 25.4648V15.2686H7.75098V25.4648L7.74414 25.5371C7.72989 25.6088 7.69405 25.6751 7.6416 25.7275C7.57185 25.7972 7.47751 25.8369 7.37891 25.8369H0.87207C0.823303 25.8369 0.774559 25.8272 0.729492 25.8086C0.684393 25.7899 0.642913 25.7621 0.608398 25.7275C0.574095 25.6931 0.546917 25.6523 0.52832 25.6074C0.50965 25.5623 0.499981 25.5137 0.5 25.4648V9.62891C0.50006 9.57312 0.512968 9.51806 0.537109 9.46777C0.561106 9.41784 0.595579 9.37367 0.638672 9.33887L11.585 0.581055L11.5859 0.582031C11.6511 0.52992 11.732 0.500756 11.8154 0.5Z" fill="black" stroke="black"/>
</svg>
